<svg xmlns="http://www.w3.org/2000/svg" width="120" height="197.117" viewBox="0 0 120 197.117"><g transform="translate(-528.03 -62.996)"><g transform="translate(528.03 62.996)"><path d="M596.637,159.7V124.628a1.789,1.789,0,0,0-1.787-1.79H559.791a1.791,1.791,0,0,0-1.8,1.79V159.7a1.794,1.794,0,0,0,1.8,1.79H594.85A1.792,1.792,0,0,0,596.637,159.7Zm-17.119-6.986a2.2,2.2,0,0,1-4.395,0v-21.1a2.2,2.2,0,0,1,4.395,0Z" transform="translate(-517.323 -41.615)"/><path d="M600.846,90.906a13.872,13.872,0,0,0,8.022-2.373,8.607,8.607,0,0,1,9.727,0,13.905,13.905,0,0,0,8.018,2.373V87.218a7.9,7.9,0,0,1-4.854-1.5,14.7,14.7,0,0,0-16.045,0,8.647,8.647,0,0,1-9.727,0,13.848,13.848,0,0,0-8.018-2.383v3.69a7.888,7.888,0,0,1,4.863,1.506A13.9,13.9,0,0,0,600.846,90.906Z" transform="translate(-506.612 -55.728)"/><path d="M600.846,84.123a13.867,13.867,0,0,0,8.022-2.373,8.6,8.6,0,0,1,9.727,0,13.9,13.9,0,0,0,8.018,2.373V80.434a7.9,7.9,0,0,1-4.854-1.495,14.7,14.7,0,0,0-16.045,0,8.659,8.659,0,0,1-9.727,0,13.84,13.84,0,0,0-8.018-2.382v3.687a7.9,7.9,0,0,1,4.863,1.506A13.9,13.9,0,0,0,600.846,84.123Z" transform="translate(-506.612 -58.151)"/><path d="M600.846,77.338a13.855,13.855,0,0,0,8.022-2.371,8.612,8.612,0,0,1,9.727,0,13.888,13.888,0,0,0,8.018,2.371V73.656a7.907,7.907,0,0,1-4.854-1.5,14.709,14.709,0,0,0-16.045,0,8.636,8.636,0,0,1-9.727,0,13.868,13.868,0,0,0-8.018-2.38v3.687a7.908,7.908,0,0,1,4.863,1.5A13.883,13.883,0,0,0,600.846,77.338Z" transform="translate(-506.612 -60.574)"/><path d="M600.846,70.558a13.858,13.858,0,0,0,8.022-2.372,8.621,8.621,0,0,1,9.727,0,13.892,13.892,0,0,0,8.018,2.372V66.873a7.9,7.9,0,0,1-4.854-1.5,14.728,14.728,0,0,0-16.045,0,8.633,8.633,0,0,1-9.727,0A13.866,13.866,0,0,0,587.97,63v3.687a7.9,7.9,0,0,1,4.863,1.5A13.887,13.887,0,0,0,600.846,70.558Z" transform="translate(-506.612 -62.996)"/><path d="M626.612,94a10.072,10.072,0,0,1-1.377-.088c-.078-.013-.186-.027-.273-.044h-.01a7.223,7.223,0,0,1-.85-.208.523.523,0,0,1-.078-.027,8.077,8.077,0,0,1-1.455-.654c-.049-.029-.1-.05-.137-.077-.225-.127-.439-.26-.674-.4a14.709,14.709,0,0,0-16.045,0,8.644,8.644,0,0,1-9.727,0,13.836,13.836,0,0,0-8.018-2.38v40.587a1.792,1.792,0,0,0,1.8,1.793h35.059a1.793,1.793,0,0,0,1.787-1.793V94Zm-10.43,25.026a7.984,7.984,0,0,1-8.262,6.892c-5.986,0-9.561-3.568-9.561-9.557v-5.488c0-4.761,1.66-10.436,9.561-10.436a8.077,8.077,0,0,1,8.291,7.689,2.192,2.192,0,1,1-4.365.4,3.739,3.739,0,0,0-3.926-3.708c-4.326,0-5.176,2.224-5.176,6.053v5.488c0,3.578,1.6,5.171,5.176,5.171a3.678,3.678,0,0,0,3.955-3.34,2.193,2.193,0,1,1,4.307.834Z" transform="translate(-506.612 -53.305)"/><path d="M544.786,149.03a4.819,4.819,0,1,0-4.814,4.819A4.816,4.816,0,0,0,544.786,149.03Z" transform="translate(-525.486 -33.982)"/><path d="M554.214,144.206a4.822,4.822,0,1,0,4.814,4.824A4.818,4.818,0,0,0,554.214,144.206Z" transform="translate(-520.4 -33.982)"/><path d="M539.971,138.056a4.821,4.821,0,1,0-4.824-4.823A4.818,4.818,0,0,0,539.971,138.056Z" transform="translate(-525.486 -39.623)"/><path d="M554.215,128.414a4.821,4.821,0,1,0,4.829,4.819A4.82,4.82,0,0,0,554.215,128.414Z" transform="translate(-520.401 -39.623)"/><path d="M532.85,145.967a4.821,4.821,0,1,0-4.819-4.821A4.826,4.826,0,0,0,532.85,145.967Z" transform="translate(-528.03 -36.796)"/><path d="M551.879,141.147a4.819,4.819,0,1,0-4.824,4.821A4.823,4.823,0,0,0,551.879,141.147Z" transform="translate(-522.956 -36.796)"/><path d="M548.032,111.932a3.449,3.449,0,0,0-3.789-3.574h-5.352v7.181h5.352A3.461,3.461,0,0,0,548.032,111.932Z" transform="translate(-524.147 -46.789)"/><path d="M547.661,103.907c0-2.089-1.431-3.387-3.75-3.387h-5.02v6.775h5.02C546.23,107.295,547.661,106,547.661,103.907Z" transform="translate(-524.147 -49.589)"/><path d="M532.864,141.143a4.819,4.819,0,0,0,4.819-4.822,4.832,4.832,0,1,1,9.663,0,4.829,4.829,0,0,0,9.658,0,4.817,4.817,0,0,1,4.673-4.817v0h.059a.211.211,0,0,0,.029-.006h3.12a1.794,1.794,0,0,0,1.787-1.79V94.64a1.8,1.8,0,0,0-1.787-1.79H529.817a1.793,1.793,0,0,0-1.787,1.79v41.676A4.825,4.825,0,0,0,532.864,141.143Zm5.488-38.951a2.291,2.291,0,0,1,2.759-2.762h7.09c4.863,0,7.778,2.609,7.778,7a5.726,5.726,0,0,1-3.066,5.087l-.713.33.713.331a5.706,5.706,0,0,1,3.433,5.56c0,4.421-2.944,7.184-7.705,7.184h-7.529a2.292,2.292,0,0,1-2.759-2.769Z" transform="translate(-528.03 -52.33)"/></g><g transform="translate(528.03 199.081)"><path d="M535.039,165.98c0-1.624-1.084-2.664-2.944-2.664h-2.7a1.148,1.148,0,0,0-.874.259,1.164,1.164,0,0,0-.254.874v7.219A.947.947,0,0,0,529.4,172.8h2.856a2.625,2.625,0,0,0,2.915-2.729,2.2,2.2,0,0,0-1.318-2.126A2.178,2.178,0,0,0,535.039,165.98Zm-4.907-1.008h1.816a1.1,1.1,0,1,1,0,2.18h-1.816Zm1.938,6.178h-1.938v-2.33h1.938a1.167,1.167,0,1,1,0,2.33Z" transform="translate(-527.941 -163.238)"/><path d="M541.615,164.531a1.49,1.49,0,0,0-.127-.809.954.954,0,0,0-1.611,0,1.589,1.589,0,0,0-.127.809V169.5a1.63,1.63,0,1,1-3.252,0v-4.966a1.546,1.546,0,0,0-.122-.809.95.95,0,0,0-1.606,0,1.476,1.476,0,0,0-.137.809v5.035a3.5,3.5,0,0,0,6.982,0Z" transform="translate(-525.668 -163.252)"/><path d="M544.116,171.264a3.431,3.431,0,0,1-1.8-.493,1.6,1.6,0,0,0-.762-.256.649.649,0,0,0-.513.208.9.9,0,0,0-.249.605c0,.533.332.8.938,1.086a4.917,4.917,0,0,0,2.358.486c1.992,0,3.53-1.05,3.53-2.877a2.639,2.639,0,0,0-.732-2,3.232,3.232,0,0,0-1.836-.746l-1.094-.154a1.49,1.49,0,0,1-.879-.37.915.915,0,0,1-.278-.725c0-.608.483-1.145,1.45-1.145a3.027,3.027,0,0,1,1.5.374,1.641,1.641,0,0,0,.693.208.706.706,0,0,0,.557-.249.972.972,0,0,0,.205-.571,1.108,1.108,0,0,0-.752-.927,4.779,4.779,0,0,0-2.148-.458c-2.051,0-3.3,1.191-3.3,2.876a2.486,2.486,0,0,0,.679,1.858,3.135,3.135,0,0,0,1.831.793l1.143.164a1.507,1.507,0,0,1,.85.33,1.1,1.1,0,0,1,.293.789C545.806,170.821,545.205,171.264,544.116,171.264Z" transform="translate(-523.467 -163.259)"/><path d="M548.289,172l.313-.862h3.7l.313.862c.161.425.234.569.4.693a.78.78,0,0,0,.513.173.928.928,0,0,0,.664-.283c.342-.359.229-.713.049-1.19l-2.734-7.258a1.417,1.417,0,0,0-.381-.629.951.951,0,0,0-.664-.225.94.94,0,0,0-.669.225,1.417,1.417,0,0,0-.381.629l-2.729,7.258c-.186.477-.293.831.039,1.19a.947.947,0,0,0,.669.283.771.771,0,0,0,.513-.173C548.054,172.565,548.123,172.421,548.289,172Zm2.168-5.859,1.27,3.44h-2.549Z" transform="translate(-521.431 -163.252)"/><path d="M555.084,172.43a1.621,1.621,0,0,0,.127-.813v-4.584l3.379,4.98c.391.588.654.85,1.074.85a.968.968,0,0,0,.7-.283,1.131,1.131,0,0,0,.264-.872v-7.178a1.476,1.476,0,0,0-.137-.809.954.954,0,0,0-1.611,0,1.49,1.49,0,0,0-.127.809v4.585l-3.369-4.984c-.391-.587-.654-.853-1.084-.853a.963.963,0,0,0-.7.291,1.134,1.134,0,0,0-.254.864v7.184a1.621,1.621,0,0,0,.127.813.966.966,0,0,0,1.611,0Z" transform="translate(-518.988 -163.252)"/><path d="M563.535,163.278a.873.873,0,0,0-.8.443,1.483,1.483,0,0,0-.132.809v7.086a1.512,1.512,0,0,0,.132.813.877.877,0,0,0,.8.433.9.9,0,0,0,.811-.433,1.519,1.519,0,0,0,.127-.813v-7.086a1.49,1.49,0,0,0-.127-.809A.891.891,0,0,0,563.535,163.278Z" transform="translate(-515.674 -163.252)"/><path d="M571.946,163.278a.889.889,0,0,0-.806.443,1.58,1.58,0,0,0-.132.809v4.585l-3.364-4.984c-.4-.587-.664-.853-1.089-.853a.963.963,0,0,0-.7.291,1.133,1.133,0,0,0-.249.864v7.184a1.64,1.64,0,0,0,.117.813.919.919,0,0,0,.811.433.908.908,0,0,0,.811-.433,1.64,1.64,0,0,0,.117-.813v-4.584l3.379,4.98c.4.588.664.85,1.094.85a.97.97,0,0,0,.693-.283,1.128,1.128,0,0,0,.254-.872v-7.178a1.589,1.589,0,0,0-.127-.809A.889.889,0,0,0,571.946,163.278Z" transform="translate(-514.605 -163.252)"/><path d="M578.884,171.415c.6-.813.605-1.785.605-3.356s0-2.545-.605-3.356a3.206,3.206,0,0,0-2.861-1.387h-2.31a1.137,1.137,0,0,0-.874.259,1.164,1.164,0,0,0-.254.874v7.219a.947.947,0,0,0,1.128,1.128h2.31A3.205,3.205,0,0,0,578.884,171.415Zm-4.438-.265v-6.178h1.406a1.656,1.656,0,0,1,1.392.583c.342.437.391,1.013.391,2.5s-.049,2.072-.391,2.506a1.677,1.677,0,0,1-1.392.585Z" transform="translate(-512.109 -163.238)"/><path d="M580.808,172.43a1.64,1.64,0,0,0,.117-.813v-7.086a1.608,1.608,0,0,0-.117-.809.9.9,0,0,0-.82-.443.87.87,0,0,0-.791.443,1.538,1.538,0,0,0-.127.809v7.086a1.568,1.568,0,0,0,.127.813.875.875,0,0,0,.791.433A.907.907,0,0,0,580.808,172.43Z" transform="translate(-509.797 -163.252)"/><path d="M587.263,163.317H583.2a.959.959,0,0,0-1.133,1.133v7.219a1.124,1.124,0,0,0,.264.872,1.15,1.15,0,0,0,.869.256h4.067a1.351,1.351,0,0,0,.718-.1.846.846,0,0,0,0-1.432,1.307,1.307,0,0,0-.718-.11h-3.335v-2.306h2.69a1.418,1.418,0,0,0,.732-.11.782.782,0,0,0,.386-.713.8.8,0,0,0-.386-.723,1.5,1.5,0,0,0-.732-.1h-2.69v-2.222h3.335a1.424,1.424,0,0,0,.718-.107.854.854,0,0,0,0-1.44A1.424,1.424,0,0,0,587.263,163.317Z" transform="translate(-508.725 -163.238)"/><path d="M531.487,175.544a1.425,1.425,0,0,1,1.392.979,1.876,1.876,0,0,0,.464.662.906.906,0,0,0,.532.159.861.861,0,0,0,.64-.256.891.891,0,0,0,.254-.7,2.467,2.467,0,0,0-.811-1.641,3.178,3.178,0,0,0-2.432-.85,3.376,3.376,0,0,0-2.52,1c-.947.942-.977,2.014-.977,3.826s.029,2.878.977,3.818a3.35,3.35,0,0,0,2.52,1,3.169,3.169,0,0,0,2.432-.85,2.467,2.467,0,0,0,.811-1.636.908.908,0,0,0-.254-.71.866.866,0,0,0-.64-.251.924.924,0,0,0-.532.159,1.876,1.876,0,0,0-.464.662,1.422,1.422,0,0,1-1.392.979,1.469,1.469,0,0,1-1.133-.51c-.381-.447-.464-.967-.464-2.659s.083-2.212.464-2.664A1.468,1.468,0,0,1,531.487,175.544Z" transform="translate(-528.03 -159.46)"/><path d="M537.566,173.894a3.382,3.382,0,0,0-2.549,1c-.937.942-.967,2.014-.967,3.826s.029,2.878.967,3.818a3.74,3.74,0,0,0,5.088,0c.938-.94.977-2.009.977-3.818s-.039-2.883-.977-3.826A3.367,3.367,0,0,0,537.566,173.894Zm1.191,7.478a1.641,1.641,0,0,1-2.383,0c-.352-.4-.464-.847-.464-2.656s.112-2.263.464-2.664a1.652,1.652,0,0,1,2.383,0c.347.4.459.852.459,2.664S539.1,180.974,538.758,181.372Z" transform="translate(-525.877 -159.46)"/><path d="M546.938,183.5a.939.939,0,0,0,.7-.293,1.109,1.109,0,0,0,.249-.867v-7.183a1.519,1.519,0,0,0-.122-.811.9.9,0,0,0-.811-.437.894.894,0,0,0-.8.437,1.561,1.561,0,0,0-.127.811v4.58l-3.379-4.976c-.391-.586-.649-.852-1.089-.852a.933.933,0,0,0-.688.288,1.121,1.121,0,0,0-.264.872v7.175a1.573,1.573,0,0,0,.132.815.958.958,0,0,0,1.611,0,1.589,1.589,0,0,0,.122-.815v-4.58l3.379,4.978C546.25,183.236,546.513,183.5,546.938,183.5Z" transform="translate(-523.537 -159.452)"/><path d="M553.943,173.915a.882.882,0,0,0-.8.437,1.512,1.512,0,0,0-.127.811v4.58l-3.369-4.976c-.4-.586-.659-.852-1.094-.852a.958.958,0,0,0-.7.288,1.137,1.137,0,0,0-.254.872v7.175a1.517,1.517,0,0,0,.137.815.954.954,0,0,0,1.606,0,1.589,1.589,0,0,0,.122-.815v-4.58l3.379,4.978c.391.588.659.857,1.084.857a.917.917,0,0,0,.693-.293,1.113,1.113,0,0,0,.264-.867v-7.183a1.613,1.613,0,0,0-.127-.811A.9.9,0,0,0,553.943,173.915Z" transform="translate(-521.038 -159.452)"/><path d="M559.775,175.606a1.434,1.434,0,0,0,.723-.107.77.77,0,0,0,.391-.725.759.759,0,0,0-.391-.713,1.387,1.387,0,0,0-.723-.1h-4.062a.958.958,0,0,0-1.133,1.128V182.3a1.139,1.139,0,0,0,.264.876,1.126,1.126,0,0,0,.869.259h4.063a1.428,1.428,0,0,0,.723-.11.766.766,0,0,0,.391-.718.775.775,0,0,0-.391-.72,1.413,1.413,0,0,0-.723-.1h-3.33v-2.31h2.686a1.468,1.468,0,0,0,.732-.1.857.857,0,0,0,0-1.438,1.44,1.44,0,0,0-.732-.1h-2.686v-2.224Z" transform="translate(-518.545 -159.438)"/><path d="M566.191,182.683a2.444,2.444,0,0,0,.811-1.636.906.906,0,0,0-.249-.71.87.87,0,0,0-.645-.251.936.936,0,0,0-.532.159,1.933,1.933,0,0,0-.459.662,1.492,1.492,0,0,1-2.524.469c-.386-.447-.464-.967-.464-2.659s.078-2.212.464-2.664a1.494,1.494,0,0,1,2.524.471,1.933,1.933,0,0,0,.459.662.918.918,0,0,0,.532.159.865.865,0,0,0,.645-.256.889.889,0,0,0,.249-.7,2.444,2.444,0,0,0-.811-1.641,3.178,3.178,0,0,0-2.432-.85,3.391,3.391,0,0,0-2.52,1c-.947.942-.977,2.014-.977,3.826s.029,2.878.977,3.818a3.365,3.365,0,0,0,2.52,1A3.169,3.169,0,0,0,566.191,182.683Z" transform="translate(-516.516 -159.46)"/><path d="M568.546,183.048a.958.958,0,0,0,1.611,0,1.519,1.519,0,0,0,.122-.811v-6.631h1.406a1.434,1.434,0,0,0,.728-.107.792.792,0,0,0,.4-.725.78.78,0,0,0-.4-.713,1.387,1.387,0,0,0-.728-.1h-4.678a1.366,1.366,0,0,0-.718.1.78.78,0,0,0-.4.713.792.792,0,0,0,.4.725,1.413,1.413,0,0,0,.718.107h1.416v6.631A1.569,1.569,0,0,0,568.546,183.048Z" transform="translate(-514.5 -159.438)"/><path d="M580.25,174.061a1.4,1.4,0,0,0-.728-.1h-4.067a1.143,1.143,0,0,0-.869.259,1.123,1.123,0,0,0-.264.869v7.153a1.553,1.553,0,0,0,.132.811.9.9,0,0,0,.806.439.89.89,0,0,0,.8-.439,1.466,1.466,0,0,0,.127-.811v-2.649h2.69a1.376,1.376,0,0,0,.728-.115.769.769,0,0,0,.386-.71.793.793,0,0,0-.386-.725,1.479,1.479,0,0,0-.728-.1h-2.69v-2.327h3.335a1.445,1.445,0,0,0,.728-.107.8.8,0,0,0,.4-.725A.783.783,0,0,0,580.25,174.061Z" transform="translate(-511.488 -159.438)"/><path d="M586.416,182.608a.794.794,0,0,0-.391-.72,1.478,1.478,0,0,0-.732-.1h-3.325v-2.31h2.69a1.468,1.468,0,0,0,.723-.1.857.857,0,0,0,0-1.438,1.44,1.44,0,0,0-.723-.1h-2.69v-2.224h3.325a1.5,1.5,0,0,0,.732-.107.788.788,0,0,0,.391-.725.776.776,0,0,0-.391-.713,1.45,1.45,0,0,0-.732-.1h-4.058a.949.949,0,0,0-1.128,1.128V182.3a1.169,1.169,0,0,0,.254.876,1.148,1.148,0,0,0,.874.259h4.058a1.5,1.5,0,0,0,.732-.11A.784.784,0,0,0,586.416,182.608Z" transform="translate(-509.421 -159.438)"/><path d="M589.814,177.917l-1.113-.161a1.553,1.553,0,0,1-.879-.366.929.929,0,0,1-.273-.728c0-.605.479-1.145,1.46-1.145a2.938,2.938,0,0,1,1.489.376,1.632,1.632,0,0,0,.693.21.709.709,0,0,0,.557-.254.95.95,0,0,0,.215-.569,1.1,1.1,0,0,0-.762-.923,4.588,4.588,0,0,0-2.134-.464c-2.056,0-3.315,1.189-3.315,2.878a2.407,2.407,0,0,0,.684,1.851,3.091,3.091,0,0,0,1.836.793l1.143.171a1.444,1.444,0,0,1,.84.325,1.085,1.085,0,0,1,.283.793c0,.757-.586,1.189-1.68,1.189a3.371,3.371,0,0,1-1.787-.491,1.634,1.634,0,0,0-.757-.251.713.713,0,0,0-.522.205.888.888,0,0,0-.254.6c0,.535.337.8.947,1.089a4.847,4.847,0,0,0,2.363.483c1.982,0,3.516-1.045,3.516-2.876a2.66,2.66,0,0,0-.732-2A3.186,3.186,0,0,0,589.814,177.917Z" transform="translate(-507.483 -159.46)"/><path d="M597.729,174.061a1.45,1.45,0,0,0-.732-.1h-4.663a1.45,1.45,0,0,0-.742.1.788.788,0,0,0-.381.713.8.8,0,0,0,.381.725,1.5,1.5,0,0,0,.742.107h1.4v6.631a1.5,1.5,0,0,0,.132.811.879.879,0,0,0,.791.439.9.9,0,0,0,.815-.439,1.622,1.622,0,0,0,.122-.811v-6.631H597a1.5,1.5,0,0,0,.732-.107.792.792,0,0,0,.4-.725A.78.78,0,0,0,597.729,174.061Z" transform="translate(-505.459 -159.438)"/><path d="M598.3,173.915a.866.866,0,0,0-.791.437,1.485,1.485,0,0,0-.146.811v7.087a1.5,1.5,0,0,0,.146.815.873.873,0,0,0,.791.439.9.9,0,0,0,.806-.439,1.524,1.524,0,0,0,.132-.815v-7.087a1.5,1.5,0,0,0-.132-.811A.891.891,0,0,0,598.3,173.915Z" transform="translate(-503.258 -159.452)"/><path d="M606.845,174.6a.9.9,0,0,0-.889-.686.8.8,0,0,0-.557.215,1.592,1.592,0,0,0-.352.676l-1.768,5.415-1.758-5.415a1.322,1.322,0,0,0-.352-.676.74.74,0,0,0-.537-.215.878.878,0,0,0-.889.686,1.435,1.435,0,0,0,.117.757l2.417,7.227a1.55,1.55,0,0,0,.376.686.874.874,0,0,0,.625.234.9.9,0,0,0,.635-.234,1.605,1.605,0,0,0,.371-.686l2.432-7.227A1.519,1.519,0,0,0,606.845,174.6Z" transform="translate(-502.411 -159.452)"/><path d="M606.383,183.329a1.511,1.511,0,0,0,.4-.7l.313-.857h3.7l.308.857a1.469,1.469,0,0,0,.4.7.773.773,0,0,0,.513.176.9.9,0,0,0,.674-.293c.322-.359.22-.708.044-1.189l-2.734-7.256a1.332,1.332,0,0,0-.386-.623.913.913,0,0,0-.669-.229.9.9,0,0,0-.664.229,1.332,1.332,0,0,0-.381.623l-2.734,7.256c-.181.481-.283.83.049,1.189a.884.884,0,0,0,.664.293A.782.782,0,0,0,606.383,183.329Zm2.554-6.56,1.284,3.445h-2.549Z" transform="translate(-500.531 -159.452)"/><path d="M617.652,181.906a1.382,1.382,0,0,0-.723-.11h-3.237v-6.633a1.5,1.5,0,0,0-.132-.811.866.866,0,0,0-.8-.437.9.9,0,0,0-.8.437,1.561,1.561,0,0,0-.127.811v7.153a1.172,1.172,0,0,0,.254.876,1.148,1.148,0,0,0,.879.259h3.965a1.462,1.462,0,0,0,.723-.11.844.844,0,0,0,0-1.436Z" transform="translate(-498.087 -159.452)"/><path d="M530.726,184.278a2.657,2.657,0,0,0-1.948.759c-.718.73-.747,1.477-.747,3.049s.029,2.324.747,3.047a2.859,2.859,0,0,0,3.892,0c.723-.723.752-1.47.752-3.047s-.029-2.319-.752-3.049A2.654,2.654,0,0,0,530.726,184.278Zm1.123,6.138a1.553,1.553,0,0,1-1.123.476,1.5,1.5,0,0,1-1.113-.476c-.371-.4-.454-.842-.454-2.329s.083-1.936.454-2.329a1.477,1.477,0,0,1,1.113-.471,1.53,1.53,0,0,1,1.123.471c.356.393.439.845.439,2.329S532.205,190.018,531.849,190.416Z" transform="translate(-528.03 -155.75)"/><path d="M536.985,188.5a1.975,1.975,0,0,0,1.484-1.992,2.144,2.144,0,0,0-2.324-2.187h-2.217a.591.591,0,0,0-.693.693v6.064a.921.921,0,0,0,.088.52.531.531,0,0,0,.479.256.526.526,0,0,0,.488-.256.921.921,0,0,0,.088-.52v-2.419h1.416l1.563,2.734c.146.261.283.461.566.461a.59.59,0,0,0,.308-.078.512.512,0,0,0,.278-.466,1.02,1.02,0,0,0-.176-.469Zm-.923-.811h-1.685v-2.358h1.685a1.182,1.182,0,1,1,0,2.358Z" transform="translate(-526.167 -155.732)"/><path d="M542.691,187.872h-1.357a.813.813,0,0,0-.454.076.46.46,0,0,0-.234.427.466.466,0,0,0,.234.435.841.841,0,0,0,.454.073h.952a1.945,1.945,0,0,1-.439,1.553,1.49,1.49,0,0,1-1.1.457,1.552,1.552,0,0,1-1.128-.471c-.366-.393-.439-.847-.439-2.334,0-1.426.059-1.9.454-2.329a1.413,1.413,0,0,1,1.084-.471,1.427,1.427,0,0,1,1.392,1.018,1.13,1.13,0,0,0,.278.43.573.573,0,0,0,.332.11.533.533,0,0,0,.4-.161.566.566,0,0,0,.156-.427,1.961,1.961,0,0,0-.581-1.206,2.447,2.447,0,0,0-1.963-.771,2.647,2.647,0,0,0-1.934.759c-.718.73-.747,1.477-.747,3.049s.029,2.324.747,3.047a2.632,2.632,0,0,0,1.948.764,2.545,2.545,0,0,0,1.914-.771,3.018,3.018,0,0,0,.723-2.444v-.117a.673.673,0,0,0-.166-.53A.682.682,0,0,0,542.691,187.872Z" transform="translate(-524.452 -155.75)"/><path d="M546.278,184.839a.956.956,0,0,0-.229-.386.567.567,0,0,0-.415-.161.578.578,0,0,0-.42.161.909.909,0,0,0-.22.386l-2.3,6.111c-.1.3-.176.532.039.754a.577.577,0,0,0,.41.166.524.524,0,0,0,.322-.11.951.951,0,0,0,.239-.43l.376-1h3.105l.381,1a.832.832,0,0,0,.239.43.49.49,0,0,0,.317.11.577.577,0,0,0,.41-.166c.21-.222.146-.457.034-.754Zm-1.846,4.514,1.2-3.279,1.2,3.279Z" transform="translate(-522.826 -155.744)"/><path d="M553.04,184.292a.519.519,0,0,0-.479.261.9.9,0,0,0-.088.513V189.6l-3.252-4.8c-.225-.337-.4-.5-.659-.5a.582.582,0,0,0-.435.181.717.717,0,0,0-.166.544V191.1a.96.96,0,0,0,.088.518.584.584,0,0,0,.967,0,.916.916,0,0,0,.088-.518v-4.531l3.252,4.807c.22.337.391.5.659.5a.6.6,0,0,0,.435-.176.709.709,0,0,0,.156-.542v-6.086a.911.911,0,0,0-.078-.513A.535.535,0,0,0,553.04,184.292Z" transform="translate(-520.906 -155.744)"/><path d="M554.124,184.292a.549.549,0,0,0-.493.261.911.911,0,0,0-.078.513v6.03a.93.93,0,0,0,.078.518.551.551,0,0,0,.493.256.518.518,0,0,0,.474-.256.84.84,0,0,0,.088-.518v-6.03a.823.823,0,0,0-.088-.513A.516.516,0,0,0,554.124,184.292Z" transform="translate(-518.909 -155.744)"/><path d="M559.675,190.806h-2.827l3.32-5.391a1.052,1.052,0,0,0,.2-.508.565.565,0,0,0-.166-.417.82.82,0,0,0-.61-.166h-3.3a.859.859,0,0,0-.469.076.47.47,0,0,0-.225.43.475.475,0,0,0,.225.43.859.859,0,0,0,.469.076h2.666l-3.325,5.393a.983.983,0,0,0-.19.508.569.569,0,0,0,.176.415.782.782,0,0,0,.6.166h3.462a.9.9,0,0,0,.464-.073.526.526,0,0,0,0-.862A.894.894,0,0,0,559.675,190.806Z" transform="translate(-518.234 -155.732)"/><path d="M560.709,184.292a.546.546,0,0,0-.488.261,1.007,1.007,0,0,0-.078.513v6.03a1.027,1.027,0,0,0,.078.518.593.593,0,0,0,.977,0,.976.976,0,0,0,.078-.518v-6.03a.956.956,0,0,0-.078-.513A.546.546,0,0,0,560.709,184.292Z" transform="translate(-516.556 -155.744)"/><path d="M567.5,184.292a.522.522,0,0,0-.483.261.941.941,0,0,0-.088.513V189.6l-3.252-4.8c-.22-.337-.391-.5-.654-.5a.6.6,0,0,0-.439.181.737.737,0,0,0-.166.544V191.1a1.085,1.085,0,0,0,.078.518.563.563,0,0,0,.493.256.528.528,0,0,0,.483-.256.93.93,0,0,0,.078-.518v-4.531l3.262,4.807c.225.337.4.5.664.5a.6.6,0,0,0,.435-.176.751.751,0,0,0,.161-.542v-6.086a.9.9,0,0,0-.088-.513A.527.527,0,0,0,567.5,184.292Z" transform="translate(-515.743 -155.744)"/><path d="M572.438,187.872H571.09a.853.853,0,0,0-.459.076.469.469,0,0,0-.234.427.475.475,0,0,0,.234.435.882.882,0,0,0,.459.073h.947a1.963,1.963,0,0,1-.43,1.553,1.568,1.568,0,0,1-2.227-.015c-.371-.393-.439-.847-.439-2.334,0-1.426.054-1.9.449-2.329a1.468,1.468,0,0,1,2.476.547,1.026,1.026,0,0,0,.278.43.565.565,0,0,0,.337.11.546.546,0,0,0,.4-.161.562.562,0,0,0,.146-.427,1.936,1.936,0,0,0-.571-1.206,2.441,2.441,0,0,0-1.963-.771,2.635,2.635,0,0,0-1.929.759c-.732.73-.752,1.477-.752,3.049s.02,2.324.752,3.047a2.621,2.621,0,0,0,1.943.764,2.555,2.555,0,0,0,1.919-.771,3.017,3.017,0,0,0,.708-2.444v-.117a.587.587,0,0,0-.693-.693Z" transform="translate(-513.814 -155.75)"/><path d="M577.3,185.286a1.427,1.427,0,0,1,1.392,1.018,1.039,1.039,0,0,0,.288.43.508.508,0,0,0,.322.11.533.533,0,0,0,.4-.161.548.548,0,0,0,.156-.427,1.976,1.976,0,0,0-.576-1.206,2.454,2.454,0,0,0-1.963-.771,2.639,2.639,0,0,0-1.934.759c-.723.73-.752,1.477-.752,3.049s.029,2.324.752,3.047a2.613,2.613,0,0,0,1.934.764,2.454,2.454,0,0,0,1.963-.771,1.976,1.976,0,0,0,.576-1.206.527.527,0,0,0-.156-.422.52.52,0,0,0-.4-.166.5.5,0,0,0-.322.112,1.013,1.013,0,0,0-.288.427,1.468,1.468,0,0,1-2.476.549c-.4-.425-.449-.9-.449-2.334s.054-1.9.449-2.329A1.42,1.42,0,0,1,577.3,185.286Z" transform="translate(-511.375 -155.75)"/><path d="M582.139,184.278a2.654,2.654,0,0,0-1.943.759c-.723.73-.752,1.477-.752,3.049s.029,2.324.752,3.047a2.841,2.841,0,0,0,3.877,0c.723-.723.762-1.47.762-3.047s-.039-2.319-.762-3.049A2.631,2.631,0,0,0,582.139,184.278Zm1.113,6.138a1.54,1.54,0,0,1-2.227,0c-.366-.4-.449-.842-.449-2.329s.083-1.936.449-2.329a1.551,1.551,0,0,1,2.227,0c.371.393.454.845.454,2.329S583.623,190.018,583.252,190.416Z" transform="translate(-509.658 -155.75)"/><path d="M590.678,184.292a.683.683,0,0,0-.322.076.85.85,0,0,0-.273.339l-2.119,4.338-2.124-4.338a.9.9,0,0,0-.278-.339.654.654,0,0,0-.322-.076.607.607,0,0,0-.42.171.753.753,0,0,0-.166.53v6.1a.916.916,0,0,0,.088.518.523.523,0,0,0,.483.256.534.534,0,0,0,.483-.256.93.93,0,0,0,.078-.518v-4.277l1.592,3.315a.614.614,0,0,0,.586.42.59.59,0,0,0,.576-.42l1.592-3.315V191.1a.93.93,0,0,0,.078.518.542.542,0,0,0,.488.256.52.52,0,0,0,.479-.256.876.876,0,0,0,.088-.518v-6.1a.753.753,0,0,0-.166-.53A.6.6,0,0,0,590.678,184.292Z" transform="translate(-507.799 -155.744)"/><path d="M596.974,184.292a.677.677,0,0,0-.317.076.85.85,0,0,0-.273.339l-2.109,4.338-2.134-4.338a1.126,1.126,0,0,0-.278-.339.667.667,0,0,0-.332-.076.588.588,0,0,0-.415.171.773.773,0,0,0-.161.53v6.1a.84.84,0,0,0,.088.518.575.575,0,0,0,.957,0,.831.831,0,0,0,.1-.518v-4.277l1.592,3.315a.593.593,0,0,0,.586.42.607.607,0,0,0,.576-.42l1.582-3.315V191.1a.985.985,0,0,0,.073.518.6.6,0,0,0,.981,0,1.037,1.037,0,0,0,.073-.518v-6.1a.714.714,0,0,0-.171-.53A.572.572,0,0,0,596.974,184.292Z" transform="translate(-505.545 -155.744)"/><path d="M597.82,184.292a.522.522,0,0,0-.483.261.9.9,0,0,0-.088.513v6.03a.916.916,0,0,0,.088.518.584.584,0,0,0,.967,0,.96.96,0,0,0,.088-.518v-6.03a.941.941,0,0,0-.088-.513A.522.522,0,0,0,597.82,184.292Z" transform="translate(-503.301 -155.744)"/><path d="M603.644,184.324h-3.96a.821.821,0,0,0-.454.076.458.458,0,0,0-.234.43.463.463,0,0,0,.234.43.821.821,0,0,0,.454.076H601.1v5.747a.935.935,0,0,0,.078.52.579.579,0,0,0,.962,0,.839.839,0,0,0,.093-.52v-5.747h1.406a.869.869,0,0,0,.469-.076.479.479,0,0,0,.229-.43.473.473,0,0,0-.229-.43A.869.869,0,0,0,603.644,184.324Z" transform="translate(-502.674 -155.732)"/><path d="M607.969,184.324h-3.945a.869.869,0,0,0-.469.076.458.458,0,0,0-.234.43.463.463,0,0,0,.234.43.869.869,0,0,0,.469.076h1.406v5.747a.935.935,0,0,0,.078.52.543.543,0,0,0,.479.256.565.565,0,0,0,.5-.256.981.981,0,0,0,.078-.52v-5.747h1.406a.869.869,0,0,0,.469-.076.479.479,0,0,0,.229-.43.473.473,0,0,0-.229-.43A.869.869,0,0,0,607.969,184.324Z" transform="translate(-501.133 -155.732)"/><path d="M612.314,185.335a.859.859,0,0,0,.469-.076.492.492,0,0,0,.234-.43.486.486,0,0,0-.234-.43.859.859,0,0,0-.469-.076h-3.442a.724.724,0,0,0-.542.159.7.7,0,0,0-.161.535v6.108a.689.689,0,0,0,.161.53.717.717,0,0,0,.542.161h3.442a.887.887,0,0,0,.469-.073.513.513,0,0,0,0-.862.883.883,0,0,0-.469-.076h-3v-2.263h2.476a.856.856,0,0,0,.454-.071.471.471,0,0,0,.234-.435.463.463,0,0,0-.234-.43.856.856,0,0,0-.454-.071h-2.476v-2.2Z" transform="translate(-499.397 -155.732)"/><path d="M616.974,185.335a.849.849,0,0,0,.464-.076.482.482,0,0,0,.234-.43.476.476,0,0,0-.234-.43.849.849,0,0,0-.464-.076h-3.452a.587.587,0,0,0-.693.693v6.108a.589.589,0,0,0,.693.691h3.452a.877.877,0,0,0,.464-.073.513.513,0,0,0,0-.862.873.873,0,0,0-.464-.076h-3v-2.263h2.471a.9.9,0,0,0,.459-.071.491.491,0,0,0,.234-.435.482.482,0,0,0-.234-.43.9.9,0,0,0-.459-.071h-2.471v-2.2Z" transform="translate(-497.735 -155.732)"/><path d="M533.111,198.548a4,4,0,0,1-1.978-3.03v-1.709a.35.35,0,0,0-.352-.344h-.269a.343.343,0,0,0-.347.344v1.709a4.258,4.258,0,0,1-1.963,3.2.381.381,0,0,0-.171.237.375.375,0,0,0,.078.286l.2.234a.34.34,0,0,0,.264.125.3.3,0,0,0,.176-.051,5.394,5.394,0,0,0,1.919-2.231,5.27,5.27,0,0,0,1.929,2.075.356.356,0,0,0,.439-.078l.186-.237a.345.345,0,0,0,.078-.288A.339.339,0,0,0,533.111,198.548Z" transform="translate(-528.031 -152.468)"/><path d="M534.264,196.3h-1.089v-3.059a.341.341,0,0,0-.347-.342h-.293a.343.343,0,0,0-.342.342v7.983a.345.345,0,0,0,.342.344h.293a.343.343,0,0,0,.347-.344v-3.97h1.089a.339.339,0,0,0,.347-.342v-.269A.341.341,0,0,0,534.264,196.3Z" transform="translate(-526.54 -152.669)"/><path d="M538.859,197.352a.342.342,0,0,0,.225-.146.33.33,0,0,0,.044-.254l-.044-.276a.326.326,0,0,0-.161-.217.334.334,0,0,0-.249-.054,16.4,16.4,0,0,1-3.506.283V194.4h2.773a.348.348,0,0,0,.352-.342v-.273a.35.35,0,0,0-.352-.342h-3.413a.343.343,0,0,0-.337.342v3.525a.346.346,0,0,0,.337.347h.571A17.679,17.679,0,0,0,538.859,197.352Z" transform="translate(-525.827 -152.474)"/><path d="M540.288,199.013H535.8V197.1a.337.337,0,0,0-.342-.342h-.293a.343.343,0,0,0-.342.342v2.532a.345.345,0,0,0,.342.344h5.122a.346.346,0,0,0,.347-.344v-.273A.344.344,0,0,0,540.288,199.013Z" transform="translate(-525.603 -151.292)"/><path d="M539.992,195.473h-.942v-2.236a.341.341,0,0,0-.347-.344h-.293a.343.343,0,0,0-.342.344v5.8a.343.343,0,0,0,.342.342h.293a.341.341,0,0,0,.347-.342v-2.6h.942a.343.343,0,0,0,.347-.344v-.273A.34.34,0,0,0,539.992,195.473Z" transform="translate(-524.445 -152.671)"/><path d="M546.239,192.909l-.293-.01a.361.361,0,0,0-.249.1.327.327,0,0,0-.1.247v1.765h-1.538v-1.338a.343.343,0,0,0-.342-.344h-.293a.341.341,0,0,0-.347.344v1.094h-2.08v-1.094a.341.341,0,0,0-.347-.344h-.293a.337.337,0,0,0-.342.344v3.557a.341.341,0,0,0,.342.349h3.359a.348.348,0,0,0,.342-.349v-1.262h1.538v1.467a.347.347,0,0,0-.015.076v1.541h-3.535v-.9a.345.345,0,0,0-.347-.347h-.288a.344.344,0,0,0-.342.347v2.949a.349.349,0,0,0,.342.349h4.8a.347.347,0,0,0,.347-.349v-3.425a.42.42,0,0,0,0-.078v-4.336A.344.344,0,0,0,546.239,192.909Zm-3.164,3.7h-2.08v-.891h2.08Zm2.5,3.872h-3.535v-.474h3.535Z" transform="translate(-523.746 -152.669)"/><path d="M.254,0H.73A.254.254,0,0,1,.983.254v6.1a.255.255,0,0,1-.255.255H.258A.258.258,0,0,1,0,6.351V.254A.254.254,0,0,1,.254,0Z" transform="translate(29.729 40.24)"/><path d="M550.257,195.595a2.293,2.293,0,1,0-2.29,2.253A2.2,2.2,0,0,0,550.257,195.595Zm-3.608,0a1.321,1.321,0,1,1,1.318,1.294A1.276,1.276,0,0,1,546.648,195.595Z" transform="translate(-521.729 -152.51)"/><path d="M552.045,198.993h-4.482v-1.838a.346.346,0,0,0-.342-.342h-.293a.346.346,0,0,0-.342.342v2.454a.349.349,0,0,0,.342.349h5.117a.358.358,0,0,0,.352-.349v-.271A.353.353,0,0,0,552.045,198.993Z" transform="translate(-521.398 -151.271)"/><path d="M554.633,193.5a.344.344,0,0,0-.347-.344h-.293a.347.347,0,0,0-.342.344v3.372a.345.345,0,0,0,.342.347h5.137a.351.351,0,0,0,.352-.347V193.5a.352.352,0,0,0-.352-.344h-.283a.341.341,0,0,0-.347.344v.952h-3.867Zm3.867,1.909v.847h-3.867v-.847Z" transform="translate(-518.876 -152.58)"/><path d="M560.354,196.481H553.27a.344.344,0,0,0-.342.342v.269a.344.344,0,0,0,.342.347h3.047v2.5a.348.348,0,0,0,.347.347h.293a.348.348,0,0,0,.347-.347v-2.5h3.052a.339.339,0,0,0,.347-.347v-.269A.339.339,0,0,0,560.354,196.481Z" transform="translate(-519.134 -151.389)"/><path d="M564.848,195.478h-.933v-2.241a.341.341,0,0,0-.347-.344h-.293a.346.346,0,0,0-.342.344v5.957a.348.348,0,0,0,.342.344h.293a.343.343,0,0,0,.347-.344v-2.756h.933a.345.345,0,0,0,.342-.347v-.266A.345.345,0,0,0,564.848,195.478Z" transform="translate(-515.561 -152.671)"/><path d="M561.352,196.383a4.2,4.2,0,0,0,1.89,1.567.354.354,0,0,0,.439-.161l.122-.254a.348.348,0,0,0,.029-.278.371.371,0,0,0-.205-.2,2.83,2.83,0,0,1-1.836-2.317v-1.143a.345.345,0,0,0-.337-.342h-.288a.349.349,0,0,0-.342.342v1.1A2.9,2.9,0,0,1,559,197.3a.411.411,0,0,0-.2.21.346.346,0,0,0,.044.293l.146.244a.349.349,0,0,0,.293.161.433.433,0,0,0,.146-.029A3.914,3.914,0,0,0,561.352,196.383Z" transform="translate(-517.04 -152.543)"/><path d="M565.137,198.978H560.7v-1.77a.345.345,0,0,0-.347-.347h-.293a.347.347,0,0,0-.342.347v2.385a.345.345,0,0,0,.342.344h5.078a.342.342,0,0,0,.342-.344v-.273A.338.338,0,0,0,565.137,198.978Z" transform="translate(-516.709 -151.253)"/><path d="M569.316,195.595a2.3,2.3,0,1,0-2.295,2.253A2.2,2.2,0,0,0,569.316,195.595Zm-3.613,0a1.321,1.321,0,1,1,1.318,1.294A1.276,1.276,0,0,1,565.7,195.595Z" transform="translate(-514.922 -152.51)"/><path d="M571.1,198.993h-4.482v-1.838a.344.344,0,0,0-.347-.342h-.293a.346.346,0,0,0-.342.342v2.454a.349.349,0,0,0,.342.349H571.1a.35.35,0,0,0,.347-.349v-.271A.346.346,0,0,0,571.1,198.993Z" transform="translate(-514.591 -151.271)"/><path d="M.254,0H.726A.255.255,0,0,1,.981.255v6.1a.255.255,0,0,1-.255.255H.254A.254.254,0,0,1,0,6.355V.254A.254.254,0,0,1,.254,0Z" transform="translate(55.595 40.24)"/><path d="M.254,0H.728A.256.256,0,0,1,.983.256V8.415a.254.254,0,0,1-.254.254H.254A.254.254,0,0,1,0,8.415V.254A.254.254,0,0,1,.254,0Z" transform="translate(63.457 40.24)"/><path d="M575.688,198.086a.36.36,0,0,0-.264-.056,18.374,18.374,0,0,1-3.682.3v-3.857h2.969a.343.343,0,0,0,.342-.342v-.293a.344.344,0,0,0-.342-.342H571.1a.344.344,0,0,0-.342.342v5.115a.349.349,0,0,0,.342.349h.605a20.647,20.647,0,0,0,3.9-.315.336.336,0,0,0,.225-.142.319.319,0,0,0,.059-.261l-.049-.278A.355.355,0,0,0,575.688,198.086Z" transform="translate(-512.763 -152.454)"/><path d="M582.791,192.9H582.5a.345.345,0,0,0-.337.342v3h-1.743a6.626,6.626,0,0,0,.337-2.107.347.347,0,0,0-.352-.342H576.96a.347.347,0,0,0-.352.342v.273a.35.35,0,0,0,.352.342h2.783a5.282,5.282,0,0,1-.205,1.067l-3,.234a.308.308,0,0,0-.249.156.381.381,0,0,0-.044.308l.117.288a.322.322,0,0,0,.352.222l2.4-.239a5.888,5.888,0,0,1-2.7,2.446.357.357,0,0,0-.176.225.333.333,0,0,0,.059.286l.176.251a.349.349,0,0,0,.439.107,6.918,6.918,0,0,0,3.105-2.9h2.139v4.023a.347.347,0,0,0,.337.344h.293a.35.35,0,0,0,.352-.344v-7.983A.348.348,0,0,0,582.791,192.9Z" transform="translate(-510.808 -152.669)"/><path d="M586.354,196.727l-.039-.281a.347.347,0,0,0-.146-.227.361.361,0,0,0-.264-.059,13.41,13.41,0,0,1-2.6.256v-2.754a.341.341,0,0,0-.347-.344h-.293a.346.346,0,0,0-.342.344v3.381a.346.346,0,0,0,.342.342h.459a15.025,15.025,0,0,0,2.969-.266A.345.345,0,0,0,586.354,196.727Z" transform="translate(-508.632 -152.52)"/><path d="M588.454,193.149h-.278a.335.335,0,0,0-.342.339v4.456h-.552v-4.558a.341.341,0,0,0-.337-.347h-.293a.342.342,0,0,0-.342.347v1.228h-1.636a.34.34,0,0,0-.337.342v.273a.34.34,0,0,0,.337.342h1.636v2.373h-2.988a.339.339,0,0,0-.332.347v.271a.339.339,0,0,0,.332.347h4.512v2.268a.338.338,0,0,0,.342.342h.278a.343.343,0,0,0,.352-.342v-7.688A.34.34,0,0,0,588.454,193.149Z" transform="translate(-508.393 -152.619)"/><path d="M.254,0h7.28a.251.251,0,0,1,.251.251V.706A.254.254,0,0,1,7.531.96H.254A.254.254,0,0,1,0,.706V.254A.254.254,0,0,1,.254,0Z" transform="translate(81.106 46.791)"/><path d="M594,194.444a.347.347,0,0,0,.352-.342v-.273a.348.348,0,0,0-.352-.342h-5.137a.343.343,0,0,0-.342.342v3.977a.349.349,0,0,0,.342.349H594.1a.348.348,0,0,0,.352-.349v-.271a.346.346,0,0,0-.352-.347h-4.6v-.942h4.341a.342.342,0,0,0,.347-.347v-.273a.338.338,0,0,0-.347-.342H589.5v-.84Z" transform="translate(-506.42 -152.459)"/><path d="M599.056,193.073h-.293a.355.355,0,0,0-.352.347v2.593h-1.235v-1.084h.464a.347.347,0,0,0,.342-.344v-.271a.343.343,0,0,0-.342-.344h-3.574a.345.345,0,0,0-.352.344v.271a.349.349,0,0,0,.352.344h.459V198.4c-.234,0-.459.01-.645,0a.359.359,0,0,0-.273.122.417.417,0,0,0-.078.276l.059.288a.327.327,0,0,0,.332.291,29.128,29.128,0,0,0,4.019-.244.349.349,0,0,0,.288-.378l-.02-.244a.374.374,0,0,0-.137-.237.343.343,0,0,0-.254-.068c-.215.029-.42.059-.64.076v-1.316h1.235v3.723a.352.352,0,0,0,.352.344h.293a.347.347,0,0,0,.347-.344V193.42A.351.351,0,0,0,599.056,193.073Zm-2.861,5.276c-.215.01-.439.022-.693.029v-3.45h.693Z" transform="translate(-504.627 -152.607)"/><path d="M.253,0H.729A.252.252,0,0,1,.981.252V8.416a.254.254,0,0,1-.254.254H.256A.256.256,0,0,1,0,8.414V.253A.253.253,0,0,1,.253,0Z" transform="translate(95.261 40.23)"/><path d="M599.747,197.19a.3.3,0,0,0,.024.308l.151.251a.339.339,0,0,0,.293.173.409.409,0,0,0,.1-.017,5.562,5.562,0,0,0,2.852-2.046,5.449,5.449,0,0,0,2.852,2.046.336.336,0,0,0,.391-.156l.156-.251a.333.333,0,0,0,.02-.31.364.364,0,0,0-.244-.2c-.913-.208-2.686-1.323-2.686-2.617v-.649a.352.352,0,0,0-.352-.347h-.293a.344.344,0,0,0-.342.347v.649c0,1.3-1.753,2.4-2.69,2.617A.336.336,0,0,0,599.747,197.19Z" transform="translate(-502.421 -152.501)"/><path d="M.252,0h7.28a.254.254,0,0,1,.254.254V.7A.255.255,0,0,1,7.531.96H.254A.254.254,0,0,1,0,.706V.252A.252.252,0,0,1,.252,0Z" transform="translate(96.87 46.756)"/><path d="M.254,0H.727A.253.253,0,0,1,.98.253V8.405a.254.254,0,0,1-.254.254H.251A.251.251,0,0,1,0,8.408V.254A.254.254,0,0,1,.254,0Z" transform="translate(110.771 40.24)"/><path d="M610.634,198.348a.353.353,0,0,0-.41-.283,17.278,17.278,0,0,1-3.6.3V196.7h2.734a.343.343,0,0,0,.342-.344v-.271a.343.343,0,0,0-.342-.342H606.62v-1.3h2.969a.355.355,0,0,0,.352-.347v-.271a.35.35,0,0,0-.352-.342h-3.613a.341.341,0,0,0-.342.342v5.154a.343.343,0,0,0,.342.342h.581a18.427,18.427,0,0,0,3.843-.3.339.339,0,0,0,.273-.4Z" transform="translate(-500.304 -152.461)"/><path d="M617.923,200.482h-4.6v-.415h4.233a.34.34,0,0,0,.342-.344v-6.482a.34.34,0,0,0-.342-.342h-.293a.34.34,0,0,0-.342.342v1.6H615.4v-1.189a.357.357,0,0,0-.347-.349h-.293a.35.35,0,0,0-.347.349v1.021h-2.085v-1.021a.347.347,0,0,0-.347-.349h-.293a.343.343,0,0,0-.342.349v3.406a.339.339,0,0,0,.342.344h3.364a.352.352,0,0,0,.347-.344V195.8h1.523v1.936h-4.258a.341.341,0,0,0-.337.344v.273a.337.337,0,0,0,.337.342h4.263v.413h-4.233a.34.34,0,0,0-.342.342v1.643a.346.346,0,0,0,.342.349h5.229a.348.348,0,0,0,.337-.349v-.269A.346.346,0,0,0,617.923,200.482Zm-3.511-4.041h-2.085v-.813h2.085Z" transform="translate(-498.26 -152.669)"/><path d="M535.472,207.238H532.41v-1.763a.337.337,0,0,0-.337-.342h-.293a.347.347,0,0,0-.352.342v1.763h-3.062a.346.346,0,0,0-.337.347v.269a.346.346,0,0,0,.337.347h7.1a.34.34,0,0,0,.337-.347v-.269A.34.34,0,0,0,535.472,207.238Z" transform="translate(-528.03 -148.299)"/><path d="M528.53,206.816a.339.339,0,0,0,.293.168.538.538,0,0,0,.088-.01,5.579,5.579,0,0,0,2.9-1.948,5.511,5.511,0,0,0,2.93,1.926.342.342,0,0,0,.381-.159l.146-.244a.364.364,0,0,0-.249-.513c-.776-.151-2.71-1.184-2.71-2.4v-.2h2.461a.354.354,0,0,0,.352-.349v-.278a.352.352,0,0,0-.352-.344h-5.918a.345.345,0,0,0-.352.344v.278a.348.348,0,0,0,.352.349h2.461v.2c0,1.238-1.9,2.263-2.72,2.424a.384.384,0,0,0-.234.2.376.376,0,0,0,.024.315Z" transform="translate(-527.918 -149.252)"/><path d="M536.582,205.191a4.168,4.168,0,0,0,1.963,1.543.341.341,0,0,0,.415-.146l.156-.239a.382.382,0,0,0,.029-.293.331.331,0,0,0-.215-.215,2.664,2.664,0,0,1-1.88-2.219v-.347h1.655a.338.338,0,0,0,.342-.339v-.276a.343.343,0,0,0-.342-.344H534.4a.343.343,0,0,0-.342.344v.276a.338.338,0,0,0,.342.339h1.67v.347a2.816,2.816,0,0,1-1.875,2.4.364.364,0,0,0-.205.22.373.373,0,0,0,.044.3l.161.234a.351.351,0,0,0,.283.154.393.393,0,0,0,.137-.029A4.078,4.078,0,0,0,536.582,205.191Z" transform="translate(-525.904 -149.304)"/><path d="M540.171,201.837h-.293a.344.344,0,0,0-.342.342v5h-4.463a.342.342,0,0,0-.342.344v.273a.339.339,0,0,0,.342.344h4.463v2.024a.343.343,0,0,0,.342.342h.293a.341.341,0,0,0,.347-.342v-7.983A.342.342,0,0,0,540.171,201.837Z" transform="translate(-525.635 -149.476)"/><path d="M542.408,206a1.95,1.95,0,1,0-2.285-1.929A2.026,2.026,0,0,0,542.408,206Zm0-2.9c.742,0,1.3.42,1.3.967s-.552.967-1.3.967-1.309-.405-1.309-.967S541.646,203.1,542.408,203.1Z" transform="translate(-523.709 -149.362)"/><path d="M546.278,201.844h-.288a.347.347,0,0,0-.347.342v3.823a42.542,42.542,0,0,1-5.693.293.4.4,0,0,0-.283.122.381.381,0,0,0-.059.293l.059.288a.352.352,0,0,0,.342.273c.532,0,1.3,0,2.139-.039v2.666a.338.338,0,0,0,.332.342h.293a.342.342,0,0,0,.352-.342v-2.715c.762-.049,1.758-.112,2.52-.232v3.21a.34.34,0,0,0,.347.337h.288a.347.347,0,0,0,.352-.337v-7.983A.355.355,0,0,0,546.278,201.844Z" transform="translate(-523.898 -149.474)"/><path d="M551.907,207.881h-4.595v-1.66a.345.345,0,0,0-.352-.342h-.293a.343.343,0,0,0-.342.342v2.28a.343.343,0,0,0,.342.342h5.239a.344.344,0,0,0,.347-.342v-.273A.348.348,0,0,0,551.907,207.881Z" transform="translate(-521.49 -148.032)"/><path d="M547.877,207.05a.345.345,0,0,0,.352.344h.293a.331.331,0,0,0,.327-.344v-1.323c.64-.042,1.4-.1,2.109-.22a.334.334,0,0,0,.288-.391l-.029-.234a.349.349,0,0,0-.381-.293,41.3,41.3,0,0,1-5.068.234.381.381,0,0,0-.278.127.293.293,0,0,0-.059.281l.044.288a.342.342,0,0,0,.327.281c.61,0,1.328,0,2.075-.029Z" transform="translate(-521.816 -148.493)"/><path d="M548.557,207.2v.276a.347.347,0,0,0,.342.344h1.372v.447a.337.337,0,0,0,.337.342h.293a.341.341,0,0,0,.342-.342v-6.077a.343.343,0,0,0-.342-.344h-.293a.339.339,0,0,0-.337.344v4.67H548.9A.342.342,0,0,0,548.557,207.2Z" transform="translate(-520.695 -149.471)"/><path d="M548.148,205.52c1.348,0,2.236-.686,2.236-1.7s-.889-1.7-2.236-1.7-2.236.684-2.236,1.7S546.811,205.52,548.148,205.52Zm0-2.461c.737,0,1.27.317,1.27.759s-.532.754-1.27.754-1.26-.317-1.26-.754S547.416,203.059,548.148,203.059Z" transform="translate(-521.64 -149.375)"/><path d="M557.808,201.837h-.293a.341.341,0,0,0-.342.342v5.376c-.693.088-1.67.146-2.441.183v-.4a1.777,1.777,0,0,0,1.631-1.765c0-1.072-.854-1.8-2.139-1.8s-2.148.728-2.148,1.8a1.78,1.78,0,0,0,1.67,1.772v.427c-.635.024-1.313.034-2.08.034a.346.346,0,0,0-.273.125.311.311,0,0,0-.073.278l.059.293a.337.337,0,0,0,.337.281,41.756,41.756,0,0,0,5.459-.286v1.66a.34.34,0,0,0,.342.342h.293a.34.34,0,0,0,.342-.342v-7.983A.341.341,0,0,0,557.808,201.837Zm-4.766,3.74c0-.5.488-.85,1.182-.85s1.182.352,1.182.85-.483.85-1.182.85S553.042,206.075,553.042,205.577Z" transform="translate(-519.714 -149.476)"/><path d="M551.778,203.614h4.78a.35.35,0,0,0,.352-.352v-.269a.345.345,0,0,0-.352-.344h-1.895v-.488a.346.346,0,0,0-.337-.344h-.288a.342.342,0,0,0-.352.344v.488h-1.909a.339.339,0,0,0-.337.344v.269A.344.344,0,0,0,551.778,203.614Z" transform="translate(-519.669 -149.484)"/></g></g></svg>