<svg xmlns="http://www.w3.org/2000/svg" width="42" height="42" viewBox="0 0 42 42"><g transform="translate(8553 -4199)"><rect width="42" height="42" transform="translate(-8553 4199)" fill="#de0000"/><g transform="translate(-8680.48 4114.076)"><path d="M159.53,100.4a2.83,2.83,0,0,0-1.991-2c-1.756-.474-8.8-.474-8.8-.474s-7.042,0-8.8.474a2.83,2.83,0,0,0-1.991,2,31.861,31.861,0,0,0,0,10.912,2.83,2.83,0,0,0,1.991,2c1.756.474,8.8.474,8.8.474s7.042,0,8.8-.474a2.83,2.83,0,0,0,1.991-2,31.863,31.863,0,0,0,0-10.912Z" transform="translate(0 0)" fill="#fff"/><path d="M362.963,220.04v-6.7l5.886,3.349Z" transform="translate(-216.526 -110.834)" fill="#de0000"/></g></g></svg>