<svg xmlns="http://www.w3.org/2000/svg" width="42" height="42" viewBox="0 0 42 42"><g transform="translate(8745 -4199)"><rect width="42" height="42" transform="translate(-8745 4199)" fill="#1c9ceb"/><path d="M676.895,37.873a9.613,9.613,0,0,1-2.774.76,4.839,4.839,0,0,0,2.124-2.672,9.666,9.666,0,0,1-3.067,1.172,4.834,4.834,0,0,0-8.229,4.4,13.709,13.709,0,0,1-9.955-5.046,4.836,4.836,0,0,0,1.495,6.448,4.81,4.81,0,0,1-2.187-.6c0,.02,0,.041,0,.061a4.834,4.834,0,0,0,3.874,4.736,4.856,4.856,0,0,1-1.272.169,4.788,4.788,0,0,1-.909-.087,4.834,4.834,0,0,0,4.511,3.354,9.688,9.688,0,0,1-6,2.068,9.867,9.867,0,0,1-1.152-.067A13.734,13.734,0,0,0,674.5,41c0-.209,0-.418-.013-.625A9.807,9.807,0,0,0,676.895,37.873Z" transform="translate(-9389.355 4174.391)" fill="#fff"/></g></svg>