<svg xmlns="http://www.w3.org/2000/svg" width="42" height="42" viewBox="0 0 42 42"><g transform="translate(8697 -4199)"><rect width="42" height="42" transform="translate(-8697 4199)" fill="#f23e55"/><g transform="translate(-9452.63 4180.09)"><path d="M783.333,40.812a5.66,5.66,0,1,0,5.66,5.66A5.666,5.666,0,0,0,783.333,40.812Zm0,9.3a3.635,3.635,0,1,1,3.635-3.635A3.639,3.639,0,0,1,783.333,50.107Z" transform="translate(-6.703 -6.624)" fill="#fff"/><circle cx="1.285" cy="1.285" r="1.285" transform="translate(780.793 33.435) rotate(-25.241)" fill="#fff"/><path d="M785.856,30.711a6.383,6.383,0,0,0-4.658-1.8h-9.136a6.089,6.089,0,0,0-6.432,6.432v9.085a6.414,6.414,0,0,0,1.852,4.737,6.482,6.482,0,0,0,4.631,1.745h9.035a6.51,6.51,0,0,0,4.669-1.741,6.367,6.367,0,0,0,1.813-4.691V35.342A6.4,6.4,0,0,0,785.856,30.711ZM785.6,44.478a4.4,4.4,0,0,1-1.2,3.242,4.537,4.537,0,0,1-3.254,1.165h-9.035a4.505,4.505,0,0,1-3.221-1.173,4.441,4.441,0,0,1-1.237-3.285V35.342a4.078,4.078,0,0,1,4.407-4.407H781.2a4.116,4.116,0,0,1,4.407,4.407Z" transform="translate(0 0)" fill="#fff"/></g></g></svg>