<svg xmlns="http://www.w3.org/2000/svg" width="50" height="50" viewBox="0 0 50 50"><g transform="translate(184.519 -317.963)"><rect width="50" height="50" transform="translate(-184.519 317.963)" fill="rgba(255,0,0,0)"/><path d="M-173.519,328.963h28v28h-28Z" fill="none"/><g transform="translate(0 1)"><path d="M-153.807,347.924a9.3,9.3,0,0,0,2.248-2.248,9.331,9.331,0,0,0-2.246-13.005h0a9.333,9.333,0,0,0-13.006,2.248,9.335,9.335,0,0,0,2.248,13.006h0l-2.43,5.555a.619.619,0,0,0-.049.236.584.584,0,0,0,.585.581h14.549a.6.6,0,0,0,.237-.049.584.584,0,0,0,.3-.768h0Zm-2.9-.808,2.12,4.846h-9.2l2.121-4.846-1.553-1.1a7,7,0,0,1-1.689-1.689,7,7,0,0,1,1.689-9.755h0a7,7,0,0,1,9.755,1.689h0a7,7,0,0,1-1.69,9.754l-1.554,1.1Z"/><path d="M-163.714,341.427l2.263-.566a2.334,2.334,0,0,0,2.826,1.7,2.33,2.33,0,0,0,1.7-1.7l2.263.566a4.667,4.667,0,0,1-5.665,3.389h0a4.669,4.669,0,0,1-3.39-3.389Z" fill="#d94539"/></g></g></svg>