<svg xmlns="http://www.w3.org/2000/svg" width="50" height="50" viewBox="0 0 50 50"><g transform="translate(-1765 -100)"><g transform="translate(1833.519 -217.963)"><rect width="50" height="50" transform="translate(-68.519 317.963)" fill="rgba(255,0,0,0)"/><path d="M-57.519,328.963h28v28h-28Z" fill="none"/><path d="M-36.331,348.463l5.126,5.125-1.694,1.689-5.12-5.126a10.773,10.773,0,0,1-15.142-1.688,10.773,10.773,0,0,1,1.688-15.143,10.773,10.773,0,0,1,15.142,1.688A10.773,10.773,0,0,1-36.331,348.463Zm-2.4-.888a8.375,8.375,0,0,0-.18-11.843,8.375,8.375,0,0,0-11.842.18,8.375,8.375,0,0,0,.18,11.843,8.373,8.373,0,0,0,11.662,0Z"/></g><path d="M9,23H9A6,6,0,0,1,9,11V23Z" transform="translate(1793.778 104.737) rotate(45)" fill="#bfdbe8"/></g></svg>