<svg xmlns="http://www.w3.org/2000/svg" width="50" height="50" viewBox="0 0 50 50"><g transform="translate(126.519 -317.963)"><rect width="50" height="50" transform="translate(-126.519 317.963)" fill="rgba(255,0,0,0)"/><path d="M-115.518,328.963h28v28h-28Z" fill="none"/><path d="M-94.168,331.763a1.166,1.166,0,0,0-.933-.467h-12.833a1.166,1.166,0,0,0-.934.467l-3.149,4.2v17.5a1.167,1.167,0,0,0,1.166,1.167h18.667a1.169,1.169,0,0,0,1.167-1.167v-17.5Zm-13.183,1.867h11.667l1.75,2.333H-109.1Zm14,18.666h-16.333v-14h16.333Z"/><path d="M-105.018,340.629v2.333a3.5,3.5,0,0,0,3.5,3.5,3.5,3.5,0,0,0,3.5-3.5v-2.333h2.333v2.333a5.833,5.833,0,0,1-5.831,5.833h0a5.832,5.832,0,0,1-5.834-5.832h0v-2.333Z" fill="#19447a"/></g></svg>