<svg xmlns="http://www.w3.org/2000/svg" width="50" height="50" viewBox="0 0 50 50"><g transform="translate(6138 84)"><rect width="50" height="50" transform="translate(-6138 -84)" fill="rgba(255,0,0,0)"/><g transform="translate(-6125 -71)" fill="#fff"><path d="M 12 22.75 C 9.128569602966309 22.75 6.429009914398193 21.63180923461914 4.398600101470947 19.60140037536621 C 2.368190050125122 17.57098960876465 1.25 14.87143039703369 1.25 12 C 1.25 9.128569602966309 2.368190050125122 6.429009914398193 4.398600101470947 4.398600101470947 C 6.429009914398193 2.368190050125122 9.128569602966309 1.25 12 1.25 C 14.87143039703369 1.25 17.57098960876465 2.368190050125122 19.60140037536621 4.398600101470947 C 21.63180923461914 6.429009914398193 22.75 9.128569602966309 22.75 12 C 22.75 14.87143039703369 21.63180923461914 17.57098960876465 19.60140037536621 19.60140037536621 C 17.57098960876465 21.63180923461914 14.87143039703369 22.75 12 22.75 Z" stroke="none"/><path d="M 12 2.5 C 6.761680603027344 2.5 2.5 6.761680603027344 2.5 12 C 2.5 17.23831939697266 6.761680603027344 21.5 12 21.5 C 17.23831939697266 21.5 21.5 17.23831939697266 21.5 12 C 21.5 6.761680603027344 17.23831939697266 2.5 12 2.5 M 12 0 C 18.62742042541504 0 24 5.372579574584961 24 12 C 24 18.62742042541504 18.62742042541504 24 12 24 C 5.372579574584961 24 0 18.62742042541504 0 12 C 0 5.372579574584961 5.372579574584961 0 12 0 Z" stroke="none" fill="#000"/></g><path d="M1.76-3.692H4.7V-7.01H8.908l1.724-1.724v-4.9L8.908-15.356H1.76ZM4.7-9.5v-3.356H7.693V-9.5Z" transform="translate(-6118.76 -49.644)" fill="#ffa800"/></g></svg>