<svg xmlns="http://www.w3.org/2000/svg" width="50" height="50" viewBox="0 0 50 50">
  <g id="그룹_1448" data-name="그룹 1448" transform="translate(8157 -167)">
    <g id="그룹_1447" data-name="그룹 1447" transform="translate(-8146 178)">
      <path id="패스_8722" data-name="패스 8722" d="M0,0H28V28H0Z" fill="none"/>
      <path id="패스_8723" data-name="패스 8723" d="M13.667,25.333A11.667,11.667,0,1,1,25.333,13.667,11.666,11.666,0,0,1,13.667,25.333Zm-2.672-2.722a20.883,20.883,0,0,1-1.963-7.778H4.406A9.343,9.343,0,0,0,11,22.611Zm.373-7.778a18.567,18.567,0,0,0,2.3,7.877,18.556,18.556,0,0,0,2.3-7.877h-4.6Zm11.559,0H18.3a20.883,20.883,0,0,1-1.963,7.778A9.343,9.343,0,0,0,22.928,14.833ZM4.406,12.5H9.031A20.883,20.883,0,0,1,11,4.722,9.343,9.343,0,0,0,4.406,12.5Zm6.964,0h4.594a18.556,18.556,0,0,0-2.3-7.877,18.556,18.556,0,0,0-2.3,7.877Zm4.969-7.778A20.883,20.883,0,0,1,18.3,12.5h4.626a9.343,9.343,0,0,0-6.589-7.778Z" transform="translate(0.333 0.333)"/>
    </g>
    <rect id="사각형_150" data-name="사각형 150" width="50" height="50" transform="translate(-8157 167)" fill="rgba(255,0,0,0)"/>
  </g>
</svg>
